<?xml version="1.0" standalone="no"?>
<!DOCTYPE svg PUBLIC "-//W3C//DTD SVG 20010904//EN"
 "http://www.w3.org/TR/2001/REC-SVG-20010904/DTD/svg10.dtd">
<svg version="1.0" xmlns="http://www.w3.org/2000/svg"
 width="1200.000000pt" height="1200.000000pt" viewBox="0 0 1200.000000 1200.000000"
 preserveAspectRatio="xMidYMid meet">
<metadata>
Created by potrace 1.14, written by Peter Selinger 2001-2017
</metadata>
<g transform="translate(0.000000,1200.000000) scale(0.100000,-0.100000)"
fill="#000000" stroke="none">
<path d="M3000 6455 l0 -3005 3000 0 3000 0 0 3005 0 3005 -3000 0 -3000 0 0
-3005z m3020 1692 c401 -60 683 -191 921 -427 219 -217 341 -499 400 -920 20
-141 17 -561 -5 -723 -67 -495 -243 -824 -561 -1049 -152 -108 -370 -197 -585
-238 -199 -39 -268 -42 -935 -47 l-660 -4 -45 24 c-82 44 -91 146 -17 199 31
22 40 23 302 28 l270 5 0 1460 0 1460 -260 5 c-282 5 -291 7 -325 63 -39 62
-15 136 52 168 42 19 61 19 693 16 526 -4 670 -7 755 -20z"/>
<path d="M5387 7913 c-2 -4 -3 -663 -3 -1463 l1 -1455 190 -3 c466 -8 762 58
1010 223 321 213 495 652 495 1245 0 504 -127 871 -388 1122 -193 186 -415
286 -712 322 -116 14 -586 21 -593 9z"/>
<path d="M2040 2706 c0 -12 10 -16 39 -16 22 0 41 -5 43 -12 3 -11 3 -347 -1
-400 -1 -14 -10 -18 -41 -18 -30 0 -40 -4 -40 -16 0 -15 14 -16 123 -12 137 5
191 22 232 70 68 81 64 274 -9 349 -49 50 -87 62 -223 67 -109 4 -123 3 -123
-12z m272 -40 c72 -35 110 -139 90 -248 -19 -104 -65 -144 -177 -155 l-65 -6
0 218 0 218 59 -6 c32 -2 74 -12 93 -21z"/>
<path d="M7260 2705 c0 -11 11 -15 40 -15 37 0 40 -2 41 -27 0 -16 1 -111 1
-213 l1 -185 -42 -3 c-28 -2 -41 -8 -41 -18 0 -12 20 -14 120 -12 128 3 171
21 63 26 l-63 3 0 78 0 79 41 37 c34 30 43 35 53 24 7 -8 51 -57 99 -110 48
-53 87 -99 87 -103 0 -3 -18 -6 -40 -6 -29 0 -40 -4 -40 -15 0 -13 16 -15 102
-13 70 2 103 7 106 16 2 8 -9 12 -35 12 -37 0 -44 5 -146 121 -59 66 -107 124
-107 128 0 4 40 46 89 94 78 77 93 87 125 87 25 0 36 4 36 15 0 12 -17 15 -90
15 -73 0 -90 -3 -90 -15 0 -10 10 -15 33 -15 l32 -1 -47 -42 c-26 -23 -83 -75
-127 -116 l-81 -73 0 116 0 116 51 0 c36 0 49 4 47 13 -3 8 -37 13 -111 15
-91 2 -107 0 -107 -13z"/>
<path d="M4668 2576 c-15 -8 -37 -21 -49 -29 -18 -13 -25 -13 -55 -1 -71 30
-170 8 -193 -42 -20 -44 -14 -84 18 -112 l30 -25 -25 -19 c-28 -22 -31 -54 -8
-79 14 -16 14 -20 -6 -47 -30 -40 -24 -88 13 -116 37 -27 155 -29 204 -3 64
34 80 86 39 133 -21 26 -31 28 -114 33 -50 4 -96 11 -103 18 -28 28 19 63 87
63 87 0 140 60 115 131 -6 17 -9 35 -6 39 5 9 49 26 88 35 16 3 27 11 24 18
-6 18 -29 19 -59 3z m-103 -71 c53 -52 15 -125 -66 -125 -76 0 -117 43 -97
101 11 33 40 47 96 48 33 1 49 -5 67 -24z m33 -281 c33 -23 30 -69 -7 -89 -43
-22 -131 -29 -161 -13 -29 16 -38 59 -19 95 11 21 19 23 88 23 53 0 83 -5 99
-16z"/>
<path d="M9918 2576 c-15 -8 -37 -21 -49 -29 -18 -13 -25 -13 -55 -1 -71 30
-170 8 -193 -42 -20 -44 -14 -84 18 -112 l30 -25 -25 -19 c-28 -22 -31 -54 -8
-79 14 -16 14 -20 -6 -47 -30 -40 -24 -88 13 -116 37 -27 155 -29 204 -3 64
34 80 86 39 133 -21 26 -31 28 -114 33 -50 4 -96 11 -103 18 -28 28 19 63 87
63 87 0 140 60 115 131 -6 17 -9 35 -6 39 5 9 49 26 88 35 16 3 27 11 24 18
-6 18 -29 19 -59 3z m-103 -71 c53 -52 15 -125 -66 -125 -76 0 -117 43 -97
101 11 33 40 47 96 48 33 1 49 -5 67 -24z m33 -281 c33 -23 30 -69 -7 -89 -43
-22 -131 -29 -161 -13 -29 16 -38 59 -19 95 11 21 19 23 88 23 53 0 83 -5 99
-16z"/>
<path d="M2942 2561 c-46 -12 -100 -67 -109 -110 -17 -87 3 -152 59 -193 28
-19 45 -23 110 -23 91 0 120 16 156 85 57 113 -9 234 -135 245 -26 2 -63 0
-81 -4z m133 -45 c41 -27 59 -64 59 -121 -2 -86 -50 -135 -134 -135 -80 0
-130 52 -130 137 0 89 61 148 143 139 21 -2 49 -11 62 -20z"/>
<path d="M3736 2560 c-16 -5 -42 -21 -57 -36 l-29 -28 0 33 c0 33 0 34 -37 27
-21 -3 -44 -6 -50 -6 -7 0 -13 -7 -13 -16 0 -13 7 -15 35 -11 l35 6 0 -134 0
-134 -32 -3 c-18 -2 -32 -7 -30 -13 3 -15 154 -13 159 2 3 7 -9 13 -29 15
l-33 3 -1 90 c-1 61 3 99 13 118 19 38 93 71 139 63 54 -11 64 -35 64 -163 l0
-113 -41 0 c-28 0 -39 -4 -36 -12 2 -9 29 -13 87 -13 58 0 85 4 88 13 2 8 -7
12 -27 12 -23 0 -31 5 -32 18 0 9 -1 62 -3 117 -3 114 -13 141 -61 161 -38 16
-66 17 -109 4z"/>
<path d="M5832 2558 c-49 -11 -53 -35 -5 -30 l30 3 1 -116 c1 -63 6 -124 12
-135 29 -54 145 -66 208 -21 31 22 32 22 32 2 0 -28 11 -32 64 -25 30 5 46 12
46 21 0 11 -10 14 -37 11 l-38 -3 -3 153 c-2 139 -4 153 -20 148 -9 -2 -32 -8
-50 -11 -42 -9 -36 -31 6 -27 l32 3 0 -104 c0 -94 -2 -105 -22 -125 -48 -44
-129 -55 -169 -23 -23 18 -24 26 -27 155 -2 75 -7 136 -10 135 -4 -1 -26 -5
-50 -11z"/>
<path d="M8189 2561 c-68 -21 -98 -56 -79 -92 9 -16 14 -18 26 -8 8 6 14 22
14 35 0 19 8 25 42 34 81 22 132 -5 140 -75 l3 -30 -80 -6 c-44 -3 -90 -11
-102 -18 -56 -30 -71 -104 -28 -146 31 -32 107 -34 167 -5 41 20 41 20 55 0
24 -34 113 -19 113 20 0 8 -6 9 -17 5 -10 -5 -29 -8 -43 -9 l-25 -1 -5 117
c-4 98 -8 121 -26 145 -29 39 -92 53 -155 34z m146 -210 c0 -55 -31 -82 -103
-89 -66 -6 -92 9 -92 53 0 43 25 61 100 74 89 15 95 13 95 -38z"/>
<path d="M8986 2560 c-16 -5 -42 -21 -57 -36 l-29 -28 0 33 c0 33 0 34 -37 27
-21 -3 -44 -6 -50 -6 -7 0 -13 -7 -13 -16 0 -13 7 -15 35 -11 l35 6 0 -134 0
-134 -32 -3 c-18 -2 -32 -7 -30 -13 3 -15 154 -13 159 2 3 7 -9 13 -29 15
l-33 3 -1 90 c-1 61 3 99 13 118 19 38 93 71 139 63 54 -11 64 -35 64 -163 l0
-113 -41 0 c-28 0 -39 -4 -36 -12 2 -9 29 -13 87 -13 58 0 85 4 88 13 2 8 -7
12 -27 12 -23 0 -31 5 -32 18 0 9 -1 62 -3 117 -3 114 -13 141 -61 161 -38 16
-66 17 -109 4z"/>
<path d="M5060 2536 c0 -8 12 -16 26 -18 24 -3 34 -19 91 -143 59 -129 63
-143 54 -176 -13 -42 -46 -76 -81 -81 -40 -5 -32 -33 9 -31 58 2 84 41 165
243 61 156 77 185 96 190 13 3 25 11 28 18 3 9 -16 12 -67 12 -55 0 -71 -3
-71 -14 0 -8 11 -16 24 -18 l24 -3 -48 -125 -49 -125 -24 55 c-13 30 -38 88
-55 128 l-31 72 29 0 c20 0 30 5 30 15 0 12 -15 15 -75 15 -58 0 -75 -3 -75
-14z"/>
</g>
</svg>
